<svg width="19" height="19" viewBox="0 0 19 19" fill="none" xmlns="http://www.w3.org/2000/svg">
<path d="M16.2175 2.78246C14.4231 0.988149 12.0375 0 9.49993 0H9.49985C6.96254 0 4.5767 0.98826 2.78246 2.78246C0.988186 4.57677 0 6.96242 0 9.5C7.42188e-05 11.1153 0.411172 12.703 1.19091 14.1072L0.0205586 18.2934C-0.00601791 18.3885 -0.00682606 18.489 0.018217 18.5845C0.0432601 18.68 0.0932532 18.7671 0.16307 18.8369C0.232887 18.9067 0.320016 18.9567 0.415522 18.9818C0.511028 19.0068 0.611475 19.006 0.706563 18.9794L4.89291 17.809C6.29698 18.5889 7.88455 19 9.49996 19C12.0375 19 14.4232 18.0118 16.2175 16.2175C18.0119 14.4232 19 12.0375 19 9.49996C18.9999 6.96239 18.0117 4.57677 16.2175 2.78246ZM9.49993 17.8867C8.00271 17.8867 6.53307 17.4869 5.24975 16.7307C5.18519 16.6927 5.1136 16.668 5.03929 16.6583C4.96497 16.6486 4.88946 16.654 4.81728 16.6742L1.35891 17.6411L2.32576 14.1828C2.34593 14.1106 2.35133 14.0351 2.34163 13.9608C2.33192 13.8865 2.30731 13.8149 2.26928 13.7504C1.51306 12.4669 1.11336 10.9971 1.11328 9.49996C1.11328 7.25978 1.98565 5.15371 3.5697 3.56966C5.15375 1.98561 7.25982 1.11328 9.49993 1.11328C14.1243 1.11328 17.8866 4.87554 17.8867 9.49996C17.8867 14.1244 14.1244 17.8867 9.49993 17.8867Z" fill="black"/>
<path d="M13.601 10.2119C13.2608 9.87158 12.807 9.68418 12.3234 9.68418C11.8398 9.68418 11.3861 9.87158 11.0459 10.2118L10.7879 10.4699C10.7242 10.5335 10.6387 10.5685 10.5471 10.5685C10.4554 10.5685 10.3699 10.5335 10.3061 10.4697L8.52956 8.69321C8.46592 8.6296 8.43089 8.54403 8.43085 8.45233C8.43085 8.36063 8.46585 8.27514 8.52941 8.21157L8.78755 7.95347C9.49199 7.24902 9.49199 6.10279 8.78758 5.39834L8.27135 4.88196C7.93102 4.54178 7.47733 4.35449 6.99375 4.35449C6.51018 4.35449 6.05648 4.54182 5.71619 4.88211L5.33129 5.26709C4.51752 6.08086 4.22213 7.2927 4.49945 8.67948C4.76044 9.98439 5.50645 11.3054 6.6001 12.3992C7.9783 13.7772 9.73358 14.6 11.2955 14.6001H11.2958C12.28 14.6001 13.1226 14.2779 13.7323 13.6682L14.1172 13.2833C14.8216 12.5788 14.8216 11.4325 14.1172 10.728L13.601 10.2119ZM13.33 12.4961L12.9451 12.881C12.5487 13.2774 11.9785 13.4868 11.2959 13.4868H11.2957C10.0224 13.4868 8.56133 12.7859 7.38737 11.612C6.44739 10.672 5.80948 9.55296 5.59117 8.46116C5.38918 7.45116 5.57647 6.59642 6.11857 6.05429L6.50343 5.66935C6.63342 5.53939 6.80754 5.46781 6.99379 5.46781C7.18012 5.46781 7.35431 5.53939 7.48423 5.66928L8.00038 6.18554C8.27076 6.45596 8.27076 6.89589 8.00042 7.16627L7.74229 7.42437C7.46838 7.69823 7.31757 8.06339 7.31761 8.45252C7.31764 8.84157 7.46853 9.20669 7.7424 9.48052L9.51894 11.257C9.79288 11.531 10.158 11.6819 10.5471 11.6819C10.9361 11.6819 11.3012 11.531 11.5751 11.2572L11.8332 10.9991C11.9631 10.8691 12.1373 10.7975 12.3235 10.7975C12.5097 10.7975 12.6838 10.8691 12.8139 10.9991L13.33 11.5153C13.6004 11.7856 13.6004 12.2257 13.33 12.4961Z" fill="black"/>
</svg>
