<svg width="28" height="28" viewBox="0 0 28 28" fill="none" xmlns="http://www.w3.org/2000/svg">
<path d="M24.5 8.16683V19.8335C24.5 23.3335 22.75 25.6668 18.6667 25.6668H9.33333C5.25 25.6668 3.5 23.3335 3.5 19.8335V8.16683C3.5 4.66683 5.25 2.3335 9.33333 2.3335H18.6667C22.75 2.3335 24.5 4.66683 24.5 8.16683Z" fill="black"/>
<path d="M14.5383 6.88345C14.2519 6.48368 13.8472 6.19778 13.3894 6.0717C12.9316 5.94561 12.4472 5.98666 12.014 6.18823C11.6263 6.36597 11.2805 6.66565 11 7.06333C10.7195 6.66467 10.3737 6.365 9.986 6.18823C9.55279 5.98666 9.06837 5.94561 8.61056 6.0717C8.15275 6.19778 7.74813 6.48368 7.46169 6.88345C7.15963 7.30388 7 7.82933 7 8.40281C7 9.22812 7.46334 10.1336 8.37703 11.095C9.12156 11.8781 10.0014 12.5195 10.4594 12.832C10.6208 12.9417 10.8084 13 11 13C11.1916 13 11.3792 12.9417 11.5406 12.832C11.9983 12.5195 12.8784 11.8781 13.623 11.095C14.5367 10.1339 15 9.22812 15 8.40281C15 7.82933 14.8404 7.30388 14.5383 6.88345Z" fill="white" stroke="white" stroke-width="1.5"/>
<path d="M8.1665 17.3335H12.8332" stroke="white" stroke-width="1.5" stroke-miterlimit="10" stroke-linecap="round" stroke-linejoin="round"/>
<path d="M8.1665 21H17.4998" stroke="white" stroke-width="1.5" stroke-miterlimit="10" stroke-linecap="round" stroke-linejoin="round"/>
</svg>
