<svg width="29" height="28" viewBox="0 0 29 28" fill="none" xmlns="http://www.w3.org/2000/svg">
<path d="M24.6353 9.34518L16.9936 3.23185C15.5003 2.04185 13.1669 2.03018 11.6853 3.22018L4.04362 9.34518C2.94695 10.2202 2.28195 11.9702 2.51528 13.3468L3.98528 22.1435C4.32362 24.1152 6.15528 25.6669 8.15028 25.6669H20.5169C22.4886 25.6669 24.3553 24.0802 24.6936 22.1319L26.1636 13.3352C26.3736 11.9702 25.7086 10.2202 24.6353 9.34518ZM15.2086 21.0002C15.2086 21.4785 14.8119 21.8752 14.3336 21.8752C13.8553 21.8752 13.4586 21.4785 13.4586 21.0002V17.5002C13.4586 17.0219 13.8553 16.6252 14.3336 16.6252C14.8119 16.6252 15.2086 17.0219 15.2086 17.5002V21.0002Z" fill="black"/>
</svg>
