<svg width="22" height="22" viewBox="0 0 22 22" fill="none" xmlns="http://www.w3.org/2000/svg">
<path d="M7.79183 17.4168H7.3335C3.66683 17.4168 1.8335 16.5002 1.8335 11.9168V7.3335C1.8335 3.66683 3.66683 1.8335 7.3335 1.8335H14.6668C18.3335 1.8335 20.1668 3.66683 20.1668 7.3335V11.9168C20.1668 15.5835 18.3335 17.4168 14.6668 17.4168H14.2085C13.9243 17.4168 13.6493 17.5543 13.4752 17.7835L12.1002 19.6168C11.4952 20.4235 10.5052 20.4235 9.90016 19.6168L8.52516 17.7835C8.3785 17.5818 8.03933 17.4168 7.79183 17.4168Z" stroke="black" stroke-width="1.5" stroke-miterlimit="10" stroke-linecap="round" stroke-linejoin="round"/>
<path d="M14.6633 10.0833H14.6715" stroke="black" stroke-width="2" stroke-linecap="round" stroke-linejoin="round"/>
<path d="M10.9958 10.0833H11.004" stroke="black" stroke-width="2" stroke-linecap="round" stroke-linejoin="round"/>
<path d="M7.3283 10.0833H7.33653" stroke="black" stroke-width="2" stroke-linecap="round" stroke-linejoin="round"/>
</svg>
