<svg width="35" height="36" viewBox="0 0 35 36" fill="none" xmlns="http://www.w3.org/2000/svg">
<g clip-path="url(#clip0_7_198)">
<path d="M28.0842 6.4335C27.1923 6.4335 26.4666 7.16077 26.4666 8.05478V27.956C26.5483 30.1074 29.6269 30.0997 29.708 27.956V8.05478C29.708 7.16084 28.9796 6.4335 28.0842 6.4335ZM17.5 6.4335C16.6046 6.4335 15.8763 7.16077 15.8763 8.05478V27.956C15.9581 30.1044 19.0427 30.1027 19.1238 27.956V8.05478C19.1238 7.16084 18.3954 6.4335 17.5 6.4335ZM22.792 12.3616C21.9002 12.3616 21.1746 13.0889 21.1746 13.9829V22.0279C21.2562 24.1795 24.3348 24.1715 24.4158 22.0279V13.9829C24.4158 13.0889 23.6874 12.3616 22.792 12.3616ZM33.3763 15.3258C32.4844 15.3258 31.7587 16.053 31.7587 16.947V19.0638C31.8404 21.2154 34.9189 21.2075 35 19.0638V16.947C35 16.053 34.2716 15.3258 33.3763 15.3258ZM1.62381 15.3258C0.728437 15.3258 0 16.053 0 16.947V19.0638C0.0818945 21.209 3.16046 21.2138 3.24126 19.0638V16.947C3.24126 16.053 2.51569 15.3258 1.62381 15.3258ZM6.91585 9.39756C6.02048 9.39756 5.29204 10.1248 5.29204 11.0188V24.9919C5.37394 27.1373 8.45257 27.1418 8.53344 24.9919V11.0188C8.53344 10.1248 7.8078 9.39756 6.91585 9.39756ZM12.208 0.505371C11.3126 0.505371 10.5842 1.23265 10.5842 2.12665V33.8841C10.666 36.0294 13.7446 36.034 13.8255 33.8841V2.12665C13.8255 1.23265 13.0998 0.505371 12.208 0.505371Z" fill="black"/>
</g>
<defs>
<clipPath id="clip0_7_198">
<rect width="35" height="35" fill="white" transform="translate(0 0.5)"/>
</clipPath>
</defs>
</svg>
