<svg width="29" height="28" viewBox="0 0 29 28" fill="none" xmlns="http://www.w3.org/2000/svg">
<path d="M21.1187 9.06516C21.037 9.0535 20.9554 9.0535 20.8737 9.06516C19.0654 9.00683 17.6304 7.52516 17.6304 5.70516C17.6304 3.85016 19.1354 2.3335 21.002 2.3335C22.857 2.3335 24.3737 3.8385 24.3737 5.70516C24.362 7.52516 22.927 9.00683 21.1187 9.06516Z" fill="black"/>
<path d="M24.922 17.15C23.6154 18.025 21.7837 18.3516 20.092 18.13C20.5354 17.1733 20.7687 16.1116 20.7804 14.9916C20.7804 13.825 20.5237 12.7166 20.0337 11.7483C21.7604 11.515 23.592 11.8416 24.9104 12.7166C26.7537 13.93 26.7537 15.925 24.922 17.15Z" fill="black"/>
<path d="M8.18034 9.06516C8.26201 9.0535 8.34368 9.0535 8.42534 9.06516C10.2337 9.00683 11.6687 7.52516 11.6687 5.70516C11.6687 3.8385 10.1637 2.3335 8.29701 2.3335C6.44201 2.3335 4.93701 3.8385 4.93701 5.70516C4.93701 7.52516 6.37201 9.00683 8.18034 9.06516Z" fill="black"/>
<path d="M8.3088 14.9919C8.3088 16.1235 8.5538 17.1969 8.99713 18.1652C7.35213 18.3402 5.63713 17.9902 4.37713 17.1619C2.5338 15.9369 2.5338 13.9419 4.37713 12.7169C5.62546 11.8769 7.38713 11.5385 9.0438 11.7252C8.56546 12.7052 8.3088 13.8135 8.3088 14.9919Z" fill="black"/>
<path d="M14.8071 18.515C14.7138 18.5033 14.6088 18.5033 14.5038 18.515C12.3571 18.445 10.6421 16.6833 10.6421 14.5133C10.6538 12.2967 12.4388 10.5 14.6671 10.5C16.8838 10.5 18.6804 12.2967 18.6804 14.5133C18.6688 16.6833 16.9654 18.445 14.8071 18.515Z" fill="black"/>
<path d="M11.0151 20.9301C9.25343 22.1084 9.25343 24.0451 11.0151 25.2117C13.0218 26.5534 16.3118 26.5534 18.3184 25.2117C20.0801 24.0334 20.0801 22.0967 18.3184 20.9301C16.3234 19.5884 13.0334 19.5884 11.0151 20.9301Z" fill="black"/>
</svg>
