<svg width="22" height="22" viewBox="0 0 22 22" fill="none" xmlns="http://www.w3.org/2000/svg">
<path d="M20.3177 7.86473L15.7904 3.53802C15.4168 3.18102 15.0379 3 14.6643 3C14.1512 3 13.5521 3.37294 13.5521 4.42402V5.89705C10.2629 6.03406 7.19117 7.32323 4.84836 9.56212C2.36695 11.9334 1.00027 15.0863 1 18.4399C0.999962 18.5574 1.03861 18.6719 1.11046 18.7673C1.18232 18.8626 1.28374 18.934 1.40037 18.9712C1.517 19.0084 1.64293 19.0096 1.76031 18.9746C1.87769 18.9396 1.98058 18.8702 2.05441 18.7763C4.8207 15.2572 8.98559 13.1775 13.5521 13.0133V14.4636C13.5521 15.5147 14.1512 15.8876 14.6642 15.8877H14.6643C15.0379 15.8877 15.4169 15.7067 15.7904 15.3496L20.3177 11.0229C20.7577 10.6025 21 10.0417 21 9.44385C21 8.84599 20.7577 8.28519 20.3177 7.86473ZM19.4891 10.231L14.9618 14.5578C14.8749 14.6408 14.803 14.6932 14.75 14.725C14.736 14.6667 14.7239 14.581 14.7239 14.4637V12.4429C14.7239 12.1336 14.4616 11.8829 14.138 11.8829C11.5346 11.8829 9.04691 12.4529 6.74414 13.5771C5.09102 14.3842 3.57984 15.4706 2.30012 16.7645C3.15145 11.2507 8.1359 7.00483 14.138 7.00483C14.4616 7.00483 14.7239 6.75411 14.7239 6.44485V4.42402C14.7239 4.30668 14.736 4.22101 14.7499 4.16269C14.803 4.19454 14.8749 4.24695 14.9618 4.32994L19.4891 8.65668C19.7077 8.86562 19.8281 9.14516 19.8281 9.44385C19.8281 9.74251 19.7077 10.022 19.4891 10.231Z" fill="black"/>
</svg>
